# Blender v2.77 (sub 0) OBJ File: 'crab.blend'
# www.blender.org
mtllib crab.mtl
o Cube_Cube.001
v -0.500000 4.000000 0.500000
v -0.500000 5.000000 0.500000
v -0.500000 4.000000 -0.500000
v -0.500000 5.000000 -0.500000
v -1.500000 5.000000 0.500000
v -1.500000 4.000000 0.500000
v -1.500000 5.000000 -0.500000
v -1.500000 4.000000 -0.500000
v -0.500000 6.000000 0.500000
v -0.500000 6.000000 -0.500000
v -1.500000 6.000000 0.500000
v -1.500000 6.000000 -0.500000
v -0.500000 3.000000 -0.500000
v -0.500000 3.000000 0.500000
v -1.500000 3.000000 -0.500000
v -1.500000 3.000000 0.500000
v -0.500000 2.000000 -0.500000
v -0.500000 2.000000 0.500000
v -1.500000 2.000000 -0.500000
v -1.500000 2.000000 0.500000
v -2.500000 4.000000 0.500000
v -2.500000 3.000000 0.500000
v -2.500000 4.000000 -0.500000
v -2.500000 3.000000 -0.500000
v -2.500000 2.000000 -0.500000
v -2.500000 2.000000 0.500000
v -3.500000 4.000000 0.500000
v -3.500000 3.000000 0.500000
v -3.500000 4.000000 -0.500000
v -3.500000 3.000000 -0.500000
v -3.500000 2.000000 -0.500000
v -3.500000 2.000000 0.500000
v -2.500000 5.000000 -0.500000
v -2.500000 6.000000 -0.500000
v -2.500000 5.000000 0.500000
v -2.500000 6.000000 0.500000
v -3.500000 5.000000 -0.500000
v -3.500000 6.000000 -0.500000
v -3.500000 5.000000 0.500000
v -3.500000 6.000000 0.500000
v -4.500000 4.000000 0.500000
v -4.500000 3.000000 0.500000
v -4.500000 4.000000 -0.500000
v -4.500000 3.000000 -0.500000
v -4.500000 5.000000 0.500000
v -4.500000 5.000000 -0.500000
v -5.500000 4.000000 0.500000
v -5.500000 3.000000 0.500000
v -5.500000 4.000000 -0.500000
v -5.500000 3.000000 -0.500000
v -4.500000 2.000000 -0.500000
v -4.500000 2.000000 0.500000
v -5.500000 2.000000 -0.500000
v -5.500000 2.000000 0.500000
v -4.500000 1.000000 -0.500000
v -4.500000 1.000000 0.500000
v -5.500000 1.000000 -0.500000
v -5.500000 1.000000 0.500000
v -2.500000 1.000000 -0.500000
v -2.500000 1.000000 0.500000
v -3.500000 1.000000 -0.500000
v -3.500000 1.000000 0.500000
v -2.500000 0.000000 -0.500000
v -2.500000 0.000000 0.500000
v -1.500000 7.000000 -0.500000
v -1.500000 7.000000 0.500000
v -1.500000 1.000000 -0.500000
v -1.500000 1.000000 0.500000
v -1.500000 0.000000 -0.500000
v -1.500000 0.000000 0.500000
v -0.500000 1.000000 -0.500000
v -0.500000 1.000000 0.500000
v -0.500000 0.000000 -0.500000
v -0.500000 0.000000 0.500000
v -2.500000 7.000000 0.500000
v -2.500000 7.000000 -0.500000
v -2.500000 8.000000 0.500000
v -2.500000 8.000000 -0.500000
v -3.500000 7.000000 0.500000
v -3.500000 7.000000 -0.500000
v -3.500000 8.000000 0.500000
v -3.500000 8.000000 -0.500000
v 0.500000 4.000000 0.500000
v 0.500000 5.000000 0.500000
v 0.500000 4.000000 -0.500000
v 0.500000 5.000000 -0.500000
v 1.500000 5.000000 0.500000
v 1.500000 4.000000 0.500000
v 1.500000 5.000000 -0.500000
v 1.500000 4.000000 -0.500000
v 0.500000 6.000000 0.500000
v 0.500000 6.000000 -0.500000
v 1.500000 6.000000 0.500000
v 1.500000 6.000000 -0.500000
v 0.500000 3.000000 -0.500000
v 0.500000 3.000000 0.500000
v 1.500000 3.000000 -0.500000
v 1.500000 3.000000 0.500000
v 0.500000 2.000000 -0.500000
v 0.500000 2.000000 0.500000
v 1.500000 2.000000 -0.500000
v 1.500000 2.000000 0.500000
v 2.500000 4.000000 0.500000
v 2.500000 3.000000 0.500000
v 2.500000 4.000000 -0.500000
v 2.500000 3.000000 -0.500000
v 2.500000 2.000000 -0.500000
v 2.500000 2.000000 0.500000
v 3.500000 4.000000 0.500000
v 3.500000 3.000000 0.500000
v 3.500000 4.000000 -0.500000
v 3.500000 3.000000 -0.500000
v 3.500000 2.000000 -0.500000
v 3.500000 2.000000 0.500000
v 2.500000 5.000000 -0.500000
v 2.500000 6.000000 -0.500000
v 2.500000 5.000000 0.500000
v 2.500000 6.000000 0.500000
v 3.500000 5.000000 -0.500000
v 3.500000 6.000000 -0.500000
v 3.500000 5.000000 0.500000
v 3.500000 6.000000 0.500000
v 4.500000 4.000000 0.500000
v 4.500000 3.000000 0.500000
v 4.500000 4.000000 -0.500000
v 4.500000 3.000000 -0.500000
v 4.500000 5.000000 0.500000
v 4.500000 5.000000 -0.500000
v 5.500000 4.000000 0.500000
v 5.500000 3.000000 0.500000
v 5.500000 4.000000 -0.500000
v 5.500000 3.000000 -0.500000
v 4.500000 2.000000 -0.500000
v 4.500000 2.000000 0.500000
v 5.500000 2.000000 -0.500000
v 5.500000 2.000000 0.500000
v 4.500000 1.000000 -0.500000
v 4.500000 1.000000 0.500000
v 5.500000 1.000000 -0.500000
v 5.500000 1.000000 0.500000
v 2.500000 1.000000 -0.500000
v 2.500000 1.000000 0.500000
v 3.500000 1.000000 -0.500000
v 3.500000 1.000000 0.500000
v 2.500000 0.000000 -0.500000
v 2.500000 0.000000 0.500000
v 1.500000 7.000000 -0.500000
v 1.500000 7.000000 0.500000
v 1.500000 1.000000 -0.500000
v 1.500000 1.000000 0.500000
v 1.500000 0.000000 -0.500000
v 1.500000 0.000000 0.500000
v 0.500000 1.000000 -0.500000
v 0.500000 1.000000 0.500000
v 0.500000 0.000000 -0.500000
v 0.500000 0.000000 0.500000
v 2.500000 7.000000 0.500000
v 2.500000 7.000000 -0.500000
v 2.500000 8.000000 0.500000
v 2.500000 8.000000 -0.500000
v 3.500000 7.000000 0.500000
v 3.500000 7.000000 -0.500000
v 3.500000 8.000000 0.500000
v 3.500000 8.000000 -0.500000
vt 0.7129 0.3529
vt 0.7501 0.3901
vt 0.7129 0.3900
vt 0.2599 0.3326
vt 0.2971 0.3698
vt 0.2599 0.3698
vt 0.7501 0.4645
vt 0.7129 0.4272
vt 0.7501 0.4273
vt 0.8903 0.8735
vt 0.9275 0.9107
vt 0.8903 0.9107
vt 0.2599 0.4070
vt 0.7873 0.4273
vt 0.4266 0.8707
vt 0.4638 0.9079
vt 0.4266 0.9079
vt 0.2971 0.2954
vt 0.3343 0.3326
vt 0.2971 0.3326
vt 0.7501 0.3157
vt 0.7129 0.3157
vt 0.2971 0.4070
vt 0.2599 0.4442
vt 0.2227 0.4442
vt 0.7873 0.3529
vt 0.8245 0.3901
vt 0.7873 0.3901
vt 0.2227 0.3698
vt 0.6053 0.8766
vt 0.6425 0.9138
vt 0.6053 0.9138
vt 0.7501 0.3529
vt 0.7873 0.3157
vt 0.3343 0.4442
vt 0.2971 0.4442
vt 0.8245 0.3529
vt 0.8617 0.3901
vt 0.3343 0.4070
vt 0.3715 0.4442
vt 0.1144 0.8695
vt 0.0772 0.9067
vt 0.0772 0.8695
vt 0.6797 0.8766
vt 0.6797 0.9138
vt 0.1884 0.8005
vt 0.1512 0.8377
vt 0.1512 0.8005
vt 0.1544 0.7553
vt 0.1916 0.7181
vt 0.1916 0.7553
vt 0.3715 0.3698
vt 0.3343 0.3698
vt 0.8245 0.3157
vt 0.8617 0.3529
vt 0.1544 0.7181
vt 0.1916 0.6809
vt 0.3715 0.4070
vt 0.3343 0.2954
vt 0.3715 0.3326
vt 0.8245 0.4645
vt 0.7873 0.4645
vt 0.2517 0.8377
vt 0.2145 0.8005
vt 0.2517 0.8005
vt 0.7873 0.5017
vt 0.2750 0.8370
vt 0.3122 0.7998
vt 0.3122 0.8370
vt 0.4738 0.9719
vt 0.4366 0.9347
vt 0.4738 0.9347
vt 0.6051 0.9347
vt 0.5679 0.9719
vt 0.5679 0.9347
vt 0.8245 0.4273
vt 0.8617 0.4645
vt 0.4087 0.3698
vt 0.8989 0.3529
vt 0.9361 0.3901
vt 0.8989 0.3901
vt 0.7493 0.9107
vt 0.7121 0.8735
vt 0.7493 0.8735
vt 0.4087 0.4070
vt 0.8989 0.4273
vt 0.8617 0.4273
vt 0.5766 0.7911
vt 0.5394 0.8283
vt 0.5394 0.7911
vt 0.6497 0.6810
vt 0.6869 0.6438
vt 0.6869 0.6810
vt 0.8529 0.9418
vt 0.8901 0.9790
vt 0.8529 0.9790
vt 0.9361 0.3157
vt 0.9361 0.3529
vt 0.4459 0.4070
vt 0.0950 0.7268
vt 0.1322 0.6896
vt 0.1322 0.7268
vt 0.6497 0.6438
vt 0.6869 0.6066
vt 0.4087 0.4442
vt 0.0950 0.7640
vt 0.1322 0.7640
vt 0.6274 0.9340
vt 0.6646 0.9712
vt 0.6274 0.9712
vt 0.4459 0.4442
vt 0.4087 0.4814
vt 0.6497 0.6066
vt 0.6869 0.5694
vt 0.8989 0.3157
vt 0.9361 0.2785
vt 0.8617 0.2785
vt 0.8617 0.3157
vt 0.3343 0.4814
vt 0.0253 0.9067
vt 0.0625 0.8695
vt 0.0625 0.9067
vt 0.4199 0.9739
vt 0.3827 0.9367
vt 0.4199 0.9367
vt 0.1212 0.5623
vt 0.0840 0.5995
vt 0.0840 0.5623
vt 0.1748 0.9308
vt 0.1376 0.9680
vt 0.1376 0.9308
vt 0.8291 0.7547
vt 0.7919 0.7175
vt 0.8291 0.7175
vt 0.6837 0.7143
vt 0.6465 0.7515
vt 0.6465 0.7143
vt 0.6213 0.6808
vt 0.5841 0.6436
vt 0.6213 0.6436
vt 0.9221 0.7605
vt 0.8849 0.7233
vt 0.9221 0.7233
vt 0.7209 0.7143
vt 0.6837 0.7515
vt 0.0266 0.8377
vt 0.0638 0.8005
vt 0.0638 0.8377
vt 0.1212 0.5995
vt 0.0840 0.6367
vt 0.5841 0.6808
vt 0.5469 0.6436
vt 0.8849 0.7605
vt 0.8477 0.7233
vt 0.3343 0.2582
vt 0.9118 0.8333
vt 0.8746 0.7961
vt 0.9118 0.7961
vt 0.4247 0.6339
vt 0.4619 0.6711
vt 0.4247 0.6711
vt 0.3707 0.6796
vt 0.4079 0.6424
vt 0.4079 0.6796
vt 0.6551 0.7853
vt 0.6922 0.8225
vt 0.6551 0.8225
vt 0.8662 0.9107
vt 0.8290 0.8735
vt 0.8662 0.8735
vt 0.8172 0.7903
vt 0.8544 0.8275
vt 0.8172 0.8275
vt 0.1703 0.8734
vt 0.1331 0.9106
vt 0.1331 0.8734
vt 0.4051 0.7133
vt 0.3679 0.7505
vt 0.3679 0.7133
vt 0.1855 0.3698
vt 0.2227 0.3326
vt 0.3894 0.8707
vt 0.0200 0.9308
vt 0.0572 0.9680
vt 0.0200 0.9680
vt 0.2227 0.4070
vt 0.7129 0.4644
vt 0.6757 0.4272
vt 0.3522 0.9079
vt 0.3894 0.9079
vt 0.1483 0.3326
vt 0.1855 0.2954
vt 0.1855 0.3326
vt 0.5681 0.8766
vt 0.5681 0.9138
vt 0.1855 0.4070
vt 0.6385 0.3900
vt 0.6757 0.3528
vt 0.6757 0.3900
vt 0.2599 0.2954
vt 0.5309 0.9138
vt 0.6757 0.3156
vt 0.1483 0.4442
vt 0.1855 0.4442
vt 0.6013 0.3900
vt 0.6385 0.3528
vt 0.1111 0.4442
vt 0.1483 0.4070
vt 0.5407 0.7457
vt 0.5779 0.7085
vt 0.5779 0.7457
vt 0.4937 0.9138
vt 0.5309 0.8766
vt 0.7764 0.9770
vt 0.7392 0.9398
vt 0.7764 0.9398
vt 0.3066 0.7192
vt 0.3438 0.7564
vt 0.3066 0.7564
vt 0.1111 0.3698
vt 0.1483 0.3698
vt 0.6013 0.3528
vt 0.6385 0.3156
vt 0.3066 0.6820
vt 0.3438 0.7192
vt 0.1111 0.4070
vt 0.1111 0.3326
vt 0.1483 0.2954
vt 0.6385 0.4644
vt 0.6757 0.4644
vt 0.2983 0.9719
vt 0.2611 0.9347
vt 0.2983 0.9347
vt 0.6757 0.5016
vt 0.2385 0.9661
vt 0.2013 0.9289
vt 0.2385 0.9289
vt 0.7716 0.9107
vt 0.8088 0.8735
vt 0.8088 0.9107
vt 0.7360 0.7214
vt 0.7732 0.7586
vt 0.7360 0.7586
vt 0.6013 0.4644
vt 0.6385 0.4272
vt 0.0739 0.3698
vt 0.5269 0.3900
vt 0.5641 0.3528
vt 0.5641 0.3900
vt 0.3542 0.9739
vt 0.3170 0.9367
vt 0.3542 0.9367
vt 0.0739 0.4070
vt 0.5641 0.4272
vt 0.6013 0.4272
vt 0.9398 0.7205
vt 0.9770 0.7577
vt 0.9398 0.7577
vt 0.2336 0.7291
vt 0.2708 0.7663
vt 0.2336 0.7663
vt 0.5263 0.6796
vt 0.4891 0.6424
vt 0.5263 0.6424
vt 0.5269 0.3156
vt 0.5269 0.3528
vt 0.0367 0.4070
vt 0.7219 0.8276
vt 0.7591 0.7904
vt 0.7591 0.8276
vt 0.2336 0.6919
vt 0.2708 0.7291
vt 0.0739 0.4442
vt 0.7963 0.7904
vt 0.7963 0.8276
vt 0.3368 0.8331
vt 0.3740 0.7959
vt 0.3740 0.8331
vt 0.0739 0.4814
vt 0.0367 0.4442
vt 0.2336 0.6547
vt 0.2708 0.6919
vt 0.5270 0.2784
vt 0.5641 0.3156
vt 0.6014 0.2784
vt 0.6013 0.3156
vt 0.1483 0.4814
vt 0.1988 0.9087
vt 0.2360 0.8715
vt 0.2360 0.9087
vt 0.6833 0.9731
vt 0.7205 0.9359
vt 0.7205 0.9731
vt 0.0352 0.7268
vt 0.0724 0.7640
vt 0.0352 0.7640
vt 0.0798 0.9328
vt 0.1170 0.9700
vt 0.0798 0.9700
vt 0.8323 0.9809
vt 0.7951 0.9437
vt 0.8323 0.9437
vt 0.2966 0.8707
vt 0.3338 0.9079
vt 0.2966 0.9079
vt 0.0247 0.6311
vt 0.0619 0.5939
vt 0.0619 0.6311
vt 0.4798 0.7900
vt 0.4426 0.8272
vt 0.4426 0.7900
vt 0.2594 0.9079
vt 0.2594 0.8707
vt 0.9519 0.9790
vt 0.9147 0.9418
vt 0.9519 0.9418
vt 0.0352 0.6896
vt 0.0724 0.7268
vt 0.0247 0.5567
vt 0.0247 0.5939
vt 0.5170 0.7900
vt 0.4798 0.8272
vt 0.1483 0.2582
vt 0.5160 0.7524
vt 0.4788 0.7152
vt 0.5160 0.7152
vt 0.9274 0.7921
vt 0.9646 0.8293
vt 0.9274 0.8293
vt 0.4279 0.7920
vt 0.3907 0.8292
vt 0.3907 0.7920
vt 0.5946 0.7457
vt 0.6318 0.7085
vt 0.6318 0.7457
vt 0.4625 0.7466
vt 0.4253 0.7094
vt 0.4625 0.7094
vt 0.6383 0.8283
vt 0.6011 0.7911
vt 0.6383 0.7911
vt 0.0880 0.8025
vt 0.1252 0.8397
vt 0.0880 0.8397
vt 0.5414 0.9719
vt 0.5042 0.9347
vt 0.5414 0.9347
vt 0.9275 0.8735
vt 0.4638 0.8707
vt 0.6425 0.8766
vt 0.1144 0.9067
vt 0.1884 0.8377
vt 0.1544 0.6809
vt 0.3715 0.2954
vt 0.2145 0.8377
vt 0.8245 0.5017
vt 0.2750 0.7998
vt 0.4366 0.9719
vt 0.6051 0.9719
vt 0.4087 0.3326
vt 0.7121 0.9107
vt 0.5766 0.8283
vt 0.8901 0.9418
vt 0.4459 0.3698
vt 0.0950 0.6896
vt 0.6646 0.9340
vt 0.4459 0.4814
vt 0.6497 0.5694
vt 0.8989 0.2785
vt 0.8245 0.2785
vt 0.3715 0.4814
vt 0.0253 0.8695
vt 0.3827 0.9739
vt 0.1748 0.9680
vt 0.7919 0.7547
vt 0.7209 0.7515
vt 0.0266 0.8005
vt 0.1212 0.6367
vt 0.5469 0.6808
vt 0.8477 0.7605
vt 0.2971 0.2582
vt 0.8746 0.8333
vt 0.4619 0.6339
vt 0.3707 0.6424
vt 0.6922 0.7853
vt 0.8290 0.9107
vt 0.8544 0.7903
vt 0.1703 0.9106
vt 0.4051 0.7505
vt 0.0572 0.9308
vt 0.3522 0.8707
vt 0.2227 0.2954
vt 0.5407 0.7085
vt 0.4937 0.8766
vt 0.7392 0.9770
vt 0.3438 0.6820
vt 0.1111 0.2954
vt 0.2611 0.9719
vt 0.6385 0.5016
vt 0.2013 0.9661
vt 0.7716 0.8735
vt 0.7732 0.7214
vt 0.0739 0.3326
vt 0.3170 0.9739
vt 0.9770 0.7205
vt 0.4891 0.6796
vt 0.0367 0.3698
vt 0.7219 0.7904
vt 0.3368 0.7959
vt 0.0367 0.4814
vt 0.2708 0.6547
vt 0.5642 0.2784
vt 0.6386 0.2784
vt 0.1111 0.4814
vt 0.1988 0.8715
vt 0.6833 0.9359
vt 0.1170 0.9328
vt 0.7951 0.9809
vt 0.3338 0.8707
vt 0.9147 0.9790
vt 0.0724 0.6896
vt 0.0619 0.5567
vt 0.5170 0.8272
vt 0.1855 0.2582
vt 0.4788 0.7524
vt 0.9646 0.7921
vt 0.4279 0.8292
vt 0.5946 0.7085
vt 0.4253 0.7466
vt 0.6011 0.8283
vt 0.1252 0.8025
vt 0.5042 0.9719
vn 0.0000 0.0000 -1.0000
vn -0.0000 0.0000 1.0000
vn -1.0000 0.0000 0.0000
vn 0.0000 1.0000 0.0000
vn 0.0000 -1.0000 0.0000
vn 1.0000 0.0000 0.0000
usemtl Material
s off
f 95/1/1 3/2/1 85/3/1
f 2/4/2 6/5/2 1/6/2
f 10/7/1 86/8/1 4/9/1
f 7/10/3 6/11/3 5/12/3
f 6/5/2 14/13/2 1/6/2
f 7/14/1 10/7/1 4/9/1
f 3/2/1 7/14/1 4/9/1
f 10/15/4 11/16/4 9/17/4
f 11/18/2 35/19/2 5/20/2
f 17/21/1 95/1/1 99/22/1
f 2/4/2 11/18/2 5/20/2
f 16/23/2 18/24/2 14/13/2
f 100/25/2 14/13/2 18/24/2
f 15/26/1 23/27/1 8/28/1
f 3/2/1 15/26/1 8/28/1
f 83/29/2 2/4/2 1/6/2
f 18/30/5 19/31/5 17/32/5
f 13/33/1 19/34/1 15/26/1
f 16/23/2 26/35/2 20/36/2
f 24/37/1 29/38/1 23/27/1
f 22/39/2 32/40/2 26/35/2
f 6/5/2 22/39/2 16/23/2
f 8/41/4 21/42/4 6/43/4
f 19/31/5 26/44/5 25/45/5
f 19/34/1 24/37/1 15/26/1
f 30/46/5 42/47/5 44/48/5
f 30/49/3 32/50/3 28/51/3
f 35/19/2 27/52/2 21/53/2
f 25/54/1 30/55/1 24/37/1
f 31/56/3 62/57/3 32/50/3
f 21/53/2 28/58/2 22/39/2
f 36/59/2 39/60/2 35/19/2
f 7/14/1 34/61/1 12/62/1
f 7/63/5 35/64/5 33/65/5
f 34/61/1 65/66/1 12/62/1
f 39/67/3 38/68/3 37/69/3
f 33/70/6 21/71/6 23/72/6
f 34/73/4 40/74/4 36/75/4
f 33/76/1 38/77/1 34/61/1
f 39/60/2 41/78/2 27/52/2
f 29/38/1 33/76/1 23/27/1
f 44/79/1 49/80/1 43/81/1
f 41/82/3 46/83/3 43/84/3
f 27/52/2 42/85/2 28/58/2
f 29/38/1 46/86/1 37/87/1
f 30/55/1 43/81/1 29/38/1
f 37/88/4 45/89/4 39/90/4
f 49/91/3 48/92/3 47/93/3
f 43/94/4 47/95/4 41/96/4
f 44/79/1 53/97/1 50/98/1
f 41/78/2 48/99/2 42/85/2
f 52/100/6 55/101/6 51/102/6
f 50/103/3 54/104/3 48/92/3
f 48/99/2 52/105/2 42/85/2
f 42/106/6 51/102/6 44/107/6
f 56/108/5 57/109/5 55/110/5
f 54/111/2 56/112/2 52/105/2
f 53/113/3 58/114/3 54/104/3
f 51/115/1 57/116/1 53/97/1
f 25/54/1 61/117/1 31/118/1
f 32/40/2 60/119/2 26/35/2
f 26/120/6 59/121/6 25/122/6
f 63/123/3 60/124/3 59/125/3
f 64/126/2 68/127/2 60/128/2
f 12/129/6 66/130/6 11/131/6
f 59/132/5 62/133/5 61/134/5
f 70/135/5 73/136/5 74/137/5
f 60/138/4 67/139/4 59/140/4
f 59/141/1 69/142/1 63/143/1
f 64/144/5 69/145/5 70/135/5
f 72/146/6 73/147/6 71/148/6
f 70/149/2 72/150/2 68/127/2
f 68/151/4 71/152/4 67/139/4
f 67/153/1 73/154/1 69/142/1
f 11/18/2 75/155/2 36/59/2
f 36/156/3 76/157/3 34/158/3
f 75/159/6 78/160/6 77/161/6
f 75/162/4 65/163/4 76/164/4
f 76/165/1 82/166/1 78/167/1
f 79/168/3 82/169/3 80/170/3
f 77/171/2 79/172/2 75/173/2
f 78/174/4 81/175/4 77/176/4
f 75/177/5 80/178/5 76/179/5
f 4/9/1 85/3/1 3/2/1
f 88/180/2 84/181/2 83/29/2
f 9/17/4 92/182/4 10/15/4
f 88/183/6 89/184/6 87/185/6
f 96/186/2 88/180/2 83/29/2
f 92/187/1 89/188/1 86/8/1
f 89/188/1 85/3/1 86/8/1
f 93/189/4 92/182/4 91/190/4
f 117/191/2 93/192/2 87/193/2
f 100/194/5 17/32/5 99/195/5
f 93/192/2 84/181/2 87/193/2
f 100/25/2 98/196/2 96/186/2
f 14/13/2 83/29/2 1/6/2
f 105/197/1 97/198/1 90/199/1
f 97/198/1 85/3/1 90/199/1
f 84/181/2 9/200/2 2/4/2
f 101/201/5 100/194/5 99/195/5
f 101/202/1 95/1/1 97/198/1
f 108/203/2 98/196/2 102/204/2
f 111/205/1 106/206/1 105/197/1
f 114/207/2 104/208/2 108/203/2
f 104/208/2 88/180/2 98/196/2
f 88/209/4 105/210/4 90/211/4
f 107/212/5 102/213/5 101/201/5
f 106/206/1 101/202/1 97/198/1
f 126/214/5 110/215/5 112/216/5
f 114/217/6 112/218/6 110/219/6
f 109/220/2 117/191/2 103/221/2
f 112/222/1 107/223/1 106/206/1
f 144/224/6 113/225/6 114/217/6
f 110/226/2 103/221/2 104/208/2
f 121/227/2 118/228/2 117/191/2
f 116/229/1 89/188/1 94/230/1
f 115/231/5 87/232/5 89/233/5
f 147/234/1 116/229/1 94/230/1
f 120/235/6 121/236/6 119/237/6
f 103/238/3 115/239/3 105/240/3
f 122/241/4 116/242/4 118/243/4
f 120/244/1 115/245/1 116/229/1
f 123/246/2 121/227/2 109/220/2
f 115/245/1 111/205/1 105/197/1
f 131/247/1 126/248/1 125/249/1
f 128/250/6 123/251/6 125/252/6
f 124/253/2 109/220/2 110/226/2
f 128/254/1 111/205/1 119/255/1
f 125/249/1 112/222/1 111/205/1
f 127/256/4 119/257/4 121/258/4
f 130/259/6 131/260/6 129/261/6
f 129/262/4 125/263/4 123/264/4
f 135/265/1 126/248/1 132/266/1
f 130/267/2 123/246/2 124/253/2
f 137/268/3 134/269/3 133/270/3
f 136/271/6 132/272/6 130/259/6
f 134/273/2 130/267/2 124/253/2
f 133/270/3 124/274/3 126/275/3
f 139/276/5 138/277/5 137/278/5
f 138/279/2 136/280/2 134/273/2
f 140/281/6 135/282/6 136/271/6
f 139/283/1 133/284/1 135/265/1
f 143/285/1 107/223/1 113/286/1
f 142/287/2 114/207/2 108/203/2
f 141/288/3 108/289/3 107/290/3
f 142/291/6 145/292/6 141/293/6
f 150/294/2 146/295/2 142/296/2
f 148/297/3 94/298/3 93/299/3
f 144/300/5 141/301/5 143/302/5
f 152/303/5 155/304/5 151/305/5
f 141/306/4 150/307/4 142/308/4
f 151/309/1 141/310/1 145/311/1
f 152/303/5 145/312/5 146/313/5
f 155/314/3 154/315/3 153/316/3
f 154/317/2 152/318/2 150/294/2
f 153/319/4 150/307/4 149/320/4
f 155/321/1 149/322/1 151/309/1
f 157/323/2 93/192/2 118/228/2
f 158/324/6 118/325/6 116/326/6
f 160/327/3 157/328/3 159/329/3
f 158/330/4 148/331/4 157/332/4
f 164/333/1 158/334/1 160/335/1
f 164/336/6 161/337/6 162/338/6
f 161/339/2 159/340/2 157/341/2
f 163/342/4 160/343/4 159/344/4
f 162/345/5 157/346/5 158/347/5
f 95/1/1 13/33/1 3/2/1
f 2/4/2 5/20/2 6/5/2
f 10/7/1 92/187/1 86/8/1
f 7/10/3 8/348/3 6/11/3
f 6/5/2 16/23/2 14/13/2
f 7/14/1 12/62/1 10/7/1
f 3/2/1 8/28/1 7/14/1
f 10/15/4 12/349/4 11/16/4
f 11/18/2 36/59/2 35/19/2
f 17/21/1 13/33/1 95/1/1
f 2/4/2 9/200/2 11/18/2
f 16/23/2 20/36/2 18/24/2
f 100/25/2 96/186/2 14/13/2
f 15/26/1 24/37/1 23/27/1
f 3/2/1 13/33/1 15/26/1
f 83/29/2 84/181/2 2/4/2
f 18/30/5 20/350/5 19/31/5
f 13/33/1 17/21/1 19/34/1
f 16/23/2 22/39/2 26/35/2
f 24/37/1 30/55/1 29/38/1
f 22/39/2 28/58/2 32/40/2
f 6/5/2 21/53/2 22/39/2
f 8/41/4 23/351/4 21/42/4
f 19/31/5 20/350/5 26/44/5
f 19/34/1 25/54/1 24/37/1
f 30/46/5 28/352/5 42/47/5
f 30/49/3 31/56/3 32/50/3
f 35/19/2 39/60/2 27/52/2
f 25/54/1 31/118/1 30/55/1
f 31/56/3 61/353/3 62/57/3
f 21/53/2 27/52/2 28/58/2
f 36/59/2 40/354/2 39/60/2
f 7/14/1 33/76/1 34/61/1
f 7/63/5 5/355/5 35/64/5
f 34/61/1 76/356/1 65/66/1
f 39/67/3 40/357/3 38/68/3
f 33/70/6 35/358/6 21/71/6
f 34/73/4 38/359/4 40/74/4
f 33/76/1 37/87/1 38/77/1
f 39/60/2 45/360/2 41/78/2
f 29/38/1 37/87/1 33/76/1
f 44/79/1 50/98/1 49/80/1
f 41/82/3 45/361/3 46/83/3
f 27/52/2 41/78/2 42/85/2
f 29/38/1 43/81/1 46/86/1
f 30/55/1 44/79/1 43/81/1
f 37/88/4 46/362/4 45/89/4
f 49/91/3 50/103/3 48/92/3
f 43/94/4 49/363/4 47/95/4
f 44/79/1 51/115/1 53/97/1
f 41/78/2 47/364/2 48/99/2
f 52/100/6 56/365/6 55/101/6
f 50/103/3 53/113/3 54/104/3
f 48/99/2 54/111/2 52/105/2
f 42/106/6 52/100/6 51/102/6
f 56/108/5 58/366/5 57/109/5
f 54/111/2 58/367/2 56/112/2
f 53/113/3 57/368/3 58/114/3
f 51/115/1 55/369/1 57/116/1
f 25/54/1 59/370/1 61/117/1
f 32/40/2 62/371/2 60/119/2
f 26/120/6 60/372/6 59/121/6
f 63/123/3 64/373/3 60/124/3
f 64/126/2 70/149/2 68/127/2
f 12/129/6 65/374/6 66/130/6
f 59/132/5 60/375/5 62/133/5
f 70/135/5 69/145/5 73/136/5
f 60/138/4 68/151/4 67/139/4
f 59/141/1 67/153/1 69/142/1
f 64/144/5 63/376/5 69/145/5
f 72/146/6 74/377/6 73/147/6
f 70/149/2 74/378/2 72/150/2
f 68/151/4 72/379/4 71/152/4
f 67/153/1 71/380/1 73/154/1
f 11/18/2 66/381/2 75/155/2
f 36/156/3 75/382/3 76/157/3
f 75/159/6 76/383/6 78/160/6
f 75/162/4 66/384/4 65/163/4
f 76/165/1 80/385/1 82/166/1
f 79/168/3 81/386/3 82/169/3
f 77/171/2 81/387/2 79/172/2
f 78/174/4 82/388/4 81/175/4
f 75/177/5 79/389/5 80/178/5
f 4/9/1 86/8/1 85/3/1
f 88/180/2 87/193/2 84/181/2
f 9/17/4 91/190/4 92/182/4
f 88/183/6 90/390/6 89/184/6
f 96/186/2 98/196/2 88/180/2
f 92/187/1 94/230/1 89/188/1
f 89/188/1 90/199/1 85/3/1
f 93/189/4 94/391/4 92/182/4
f 117/191/2 118/228/2 93/192/2
f 100/194/5 18/30/5 17/32/5
f 93/192/2 91/392/2 84/181/2
f 100/25/2 102/204/2 98/196/2
f 14/13/2 96/186/2 83/29/2
f 105/197/1 106/206/1 97/198/1
f 97/198/1 95/1/1 85/3/1
f 84/181/2 91/392/2 9/200/2
f 101/201/5 102/213/5 100/194/5
f 101/202/1 99/22/1 95/1/1
f 108/203/2 104/208/2 98/196/2
f 111/205/1 112/222/1 106/206/1
f 114/207/2 110/226/2 104/208/2
f 104/208/2 103/221/2 88/180/2
f 88/209/4 103/393/4 105/210/4
f 107/212/5 108/394/5 102/213/5
f 106/206/1 107/223/1 101/202/1
f 126/214/5 124/395/5 110/215/5
f 114/217/6 113/225/6 112/218/6
f 109/220/2 121/227/2 117/191/2
f 112/222/1 113/286/1 107/223/1
f 144/224/6 143/396/6 113/225/6
f 110/226/2 109/220/2 103/221/2
f 121/227/2 122/397/2 118/228/2
f 116/229/1 115/245/1 89/188/1
f 115/231/5 117/398/5 87/232/5
f 147/234/1 158/399/1 116/229/1
f 120/235/6 122/400/6 121/236/6
f 103/238/3 117/401/3 115/239/3
f 122/241/4 120/402/4 116/242/4
f 120/244/1 119/255/1 115/245/1
f 123/246/2 127/403/2 121/227/2
f 115/245/1 119/255/1 111/205/1
f 131/247/1 132/266/1 126/248/1
f 128/250/6 127/404/6 123/251/6
f 124/253/2 123/246/2 109/220/2
f 128/254/1 125/249/1 111/205/1
f 125/249/1 126/248/1 112/222/1
f 127/256/4 128/405/4 119/257/4
f 130/259/6 132/272/6 131/260/6
f 129/262/4 131/406/4 125/263/4
f 135/265/1 133/284/1 126/248/1
f 130/267/2 129/407/2 123/246/2
f 137/268/3 138/408/3 134/269/3
f 136/271/6 135/282/6 132/272/6
f 134/273/2 136/280/2 130/267/2
f 133/270/3 134/269/3 124/274/3
f 139/276/5 140/409/5 138/277/5
f 138/279/2 140/410/2 136/280/2
f 140/281/6 139/411/6 135/282/6
f 139/283/1 137/412/1 133/284/1
f 143/285/1 141/413/1 107/223/1
f 142/287/2 144/414/2 114/207/2
f 141/288/3 142/415/3 108/289/3
f 142/291/6 146/416/6 145/292/6
f 150/294/2 152/318/2 146/295/2
f 148/297/3 147/417/3 94/298/3
f 144/300/5 142/418/5 141/301/5
f 152/303/5 156/419/5 155/304/5
f 141/306/4 149/320/4 150/307/4
f 151/309/1 149/322/1 141/310/1
f 152/303/5 151/305/5 145/312/5
f 155/314/3 156/420/3 154/315/3
f 154/317/2 156/421/2 152/318/2
f 153/319/4 154/422/4 150/307/4
f 155/321/1 153/423/1 149/322/1
f 157/323/2 148/424/2 93/192/2
f 158/324/6 157/425/6 118/325/6
f 160/327/3 158/426/3 157/328/3
f 158/330/4 147/427/4 148/331/4
f 164/333/1 162/428/1 158/334/1
f 164/336/6 163/429/6 161/337/6
f 161/339/2 163/430/2 159/340/2
f 163/342/4 164/431/4 160/343/4
f 162/345/5 161/432/5 157/346/5
