# Blender v2.72 (sub 0) OBJ File: 'INVEDER3D.blend'
# www.blender.org
mtllib inveder.mtl
o Cube
v 0.135684 0.000000 -0.067842
v 0.135684 0.000000 0.067842
v 0.814103 0.542735 -0.067842
v 0.814103 0.542735 0.067842
v 0.135684 0.135684 -0.067842
v 0.135684 0.135684 0.067842
v 0.678419 0.542735 0.067842
v 0.678419 0.542735 -0.067842
v 0.271368 0.000000 -0.067842
v 0.271368 0.000000 0.067842
v 0.271368 0.135684 -0.067842
v 0.271368 0.135684 0.067842
v 0.407051 0.000000 -0.067842
v 0.407051 0.000000 0.067842
v 0.407051 0.135684 -0.067842
v 0.407051 0.135684 0.067842
v 0.678419 0.407051 0.067842
v 0.678419 0.407051 -0.067842
v 0.542735 0.135684 -0.067842
v 0.542735 0.135684 0.067842
v 0.407051 0.271368 -0.067842
v 0.407051 0.271368 0.067842
v 0.542735 0.271368 -0.067842
v 0.542735 0.271368 0.067842
v 0.407051 0.407051 -0.067842
v 0.407051 0.407051 0.067842
v 0.542735 0.407051 -0.067842
v 0.542735 0.407051 0.067842
v 0.271368 0.271368 -0.067842
v 0.271367 0.271368 0.067842
v 0.271368 0.407051 -0.067842
v 0.271367 0.407051 0.067842
v 0.135684 0.271368 -0.067842
v 0.135684 0.271368 0.067842
v 0.135684 0.407051 -0.067842
v 0.135684 0.407051 0.067842
v 0.407051 0.542735 -0.067842
v 0.407051 0.542735 0.067842
v 0.542735 0.542735 -0.067842
v 0.542735 0.542735 0.067842
v 0.271368 0.542735 -0.067842
v 0.271367 0.542735 0.067842
v 0.135684 0.542735 -0.067842
v 0.135684 0.542735 0.067842
v 0.814103 0.407051 0.067842
v 0.814103 0.407051 -0.067842
v 0.678419 0.135684 0.067842
v 0.678419 0.135684 -0.067842
v 0.814103 0.135684 0.067842
v 0.814103 0.135684 -0.067842
v 0.678419 0.678419 0.067842
v 0.678419 0.678419 -0.067842
v 0.407051 0.678419 -0.067842
v 0.407051 0.678419 0.067842
v 0.542735 0.678419 -0.067842
v 0.542735 0.678419 0.067842
v 0.271368 0.678419 -0.067842
v 0.271367 0.678419 0.067842
v 0.135684 0.678419 -0.067842
v 0.135684 0.678419 0.067842
v 0.407051 0.814103 -0.067842
v 0.407051 0.814103 0.067842
v 0.542735 0.814103 -0.067842
v 0.542735 0.814103 0.067842
v 0.271368 0.814103 -0.067842
v 0.271367 0.814103 0.067842
v 0.135684 0.814103 -0.067842
v 0.135684 0.814103 0.067842
v 0.407051 0.949786 -0.067842
v 0.407051 0.949786 0.067842
v 0.271368 0.949786 -0.067842
v 0.271367 0.949786 0.067842
v 0.407051 1.085470 -0.067842
v 0.407051 1.085470 0.067842
v 0.542735 0.949786 -0.067842
v 0.542735 0.949786 0.067842
v 0.542735 1.085470 -0.067842
v 0.542735 1.085470 0.067842
v -0.135684 0.000000 -0.067842
v -0.135684 0.000000 0.067842
v -0.814103 0.542735 -0.067842
v -0.814103 0.542735 0.067842
v -0.135684 0.135684 -0.067842
v -0.135684 0.135684 0.067842
v -0.678419 0.542735 0.067842
v -0.678419 0.542735 -0.067842
v -0.271368 0.000000 -0.067842
v -0.271368 0.000000 0.067842
v -0.271368 0.135684 -0.067842
v -0.271368 0.135684 0.067842
v -0.407051 0.000000 -0.067842
v -0.407051 0.000000 0.067842
v -0.407051 0.135684 -0.067842
v -0.407051 0.135684 0.067842
v -0.678419 0.407051 0.067842
v -0.678419 0.407051 -0.067842
v -0.542735 0.135684 -0.067842
v -0.542735 0.135684 0.067842
v -0.407051 0.271368 -0.067842
v -0.407051 0.271368 0.067842
v -0.542735 0.271368 -0.067842
v -0.542735 0.271368 0.067842
v -0.407051 0.407051 -0.067842
v -0.407051 0.407051 0.067842
v -0.542735 0.407051 -0.067842
v -0.542735 0.407051 0.067842
v -0.271368 0.271368 -0.067842
v -0.271367 0.271368 0.067842
v -0.271368 0.407051 -0.067842
v -0.271367 0.407051 0.067842
v -0.135684 0.271368 -0.067842
v -0.135684 0.271368 0.067842
v -0.135684 0.407051 -0.067842
v -0.135684 0.407051 0.067842
v 0.000000 0.271368 -0.067842
v 0.000000 0.271368 0.067842
v 0.000000 0.407051 -0.067842
v 0.000000 0.407051 0.067842
v -0.407051 0.542735 -0.067842
v -0.407051 0.542735 0.067842
v -0.542735 0.542735 -0.067842
v -0.542735 0.542735 0.067842
v -0.271368 0.542735 -0.067842
v -0.271367 0.542735 0.067842
v -0.135684 0.542735 -0.067842
v -0.135684 0.542735 0.067842
v 0.000000 0.542735 -0.067842
v 0.000000 0.542735 0.067842
v -0.814103 0.407051 0.067842
v -0.814103 0.407051 -0.067842
v -0.678419 0.135684 0.067842
v -0.678419 0.135684 -0.067842
v -0.814103 0.135684 0.067842
v -0.814103 0.135684 -0.067842
v -0.678419 0.678419 0.067842
v -0.678419 0.678419 -0.067842
v -0.407051 0.678419 -0.067842
v -0.407051 0.678419 0.067842
v -0.542735 0.678419 -0.067842
v -0.542735 0.678419 0.067842
v -0.271368 0.678419 -0.067842
v -0.271367 0.678419 0.067842
v -0.135684 0.678419 -0.067842
v -0.135684 0.678419 0.067842
v 0.000000 0.678419 -0.067842
v 0.000000 0.678419 0.067842
v -0.407051 0.814103 -0.067842
v -0.407051 0.814103 0.067842
v -0.542735 0.814103 -0.067842
v -0.542735 0.814103 0.067842
v -0.271368 0.814103 -0.067842
v -0.271367 0.814103 0.067842
v -0.135684 0.814103 -0.067842
v -0.135684 0.814103 0.067842
v 0.000000 0.814103 -0.067842
v 0.000000 0.814103 0.067842
v -0.407051 0.949786 -0.067842
v -0.407051 0.949786 0.067842
v -0.271368 0.949786 -0.067842
v -0.271367 0.949786 0.067842
v -0.407051 1.085470 -0.067842
v -0.407051 1.085470 0.067842
v -0.542735 0.949786 -0.067842
v -0.542735 0.949786 0.067842
v -0.542735 1.085470 -0.067842
v -0.542735 1.085470 0.067842
vt 0.685234 0.499228
vt 0.685233 0.374710
vt 0.747492 0.374710
vt 0.810523 0.560716
vt 0.810523 0.622975
vt 0.748264 0.622975
vt 0.874325 0.125675
vt 0.936584 0.125675
vt 0.936584 0.187934
vt 0.748264 0.685234
vt 0.874325 0.187934
vt 0.936584 0.250193
vt 0.747492 0.499228
vt 0.747492 0.561487
vt 0.312452 0.874325
vt 0.250193 0.874325
vt 0.250193 0.812066
vt 0.374710 0.812066
vt 0.436969 0.812066
vt 0.436969 0.874324
vt 0.874325 0.313223
vt 0.874325 0.250964
vt 0.936584 0.250964
vt 0.685234 0.187162
vt 0.747492 0.187162
vt 0.747493 0.249421
vt 0.998843 0.250964
vt 0.998843 0.313223
vt 0.936584 0.313994
vt 0.936584 0.376253
vt 0.874325 0.376253
vt 0.499228 0.812066
vt 0.499228 0.874324
vt 0.748264 0.187162
vt 0.810523 0.187162
vt 0.810523 0.249421
vt 0.622975 0.187162
vt 0.685234 0.249421
vt 0.560716 0.373939
vt 0.560716 0.311680
vt 0.622975 0.311680
vt 0.622975 0.124903
vt 0.685234 0.124903
vt 0.622975 0.436969
vt 0.622975 0.499228
vt 0.560716 0.499228
vt 0.622975 0.374710
vt 0.560716 0.436969
vt 0.810523 0.062645
vt 0.810523 0.124904
vt 0.748264 0.124903
vt 0.498457 0.811294
vt 0.436198 0.811294
vt 0.436198 0.749035
vt 0.560716 0.561487
vt 0.498457 0.561487
vt 0.622975 0.561487
vt 0.560716 0.249421
vt 0.622975 0.249421
vt 0.498457 0.311680
vt 0.436198 0.311680
vt 0.436198 0.249421
vt 0.498457 0.499228
vt 0.498457 0.436969
vt 0.373939 0.811294
vt 0.498457 0.249421
vt 0.436198 0.499228
vt 0.373939 0.499228
vt 0.373939 0.436969
vt 0.498457 0.187162
vt 0.560716 0.187162
vt 0.436198 0.436969
vt 0.373939 0.749035
vt 0.311680 0.811294
vt 0.311680 0.749035
vt 0.249421 0.811294
vt 0.373939 0.311680
vt 0.373939 0.249421
vt 0.436198 0.561487
vt 0.560716 0.124903
vt 0.936584 0.878181
vt 0.874325 0.878181
vt 0.874325 0.815922
vt 0.373939 0.187162
vt 0.373939 0.124903
vt 0.436198 0.124903
vt 0.436198 0.187162
vt 0.373939 0.561487
vt 0.685234 0.561487
vt 0.748264 0.373939
vt 0.810523 0.373939
vt 0.810523 0.436198
vt 0.747493 0.373939
vt 0.685234 0.373939
vt 0.748264 0.560716
vt 0.748264 0.436198
vt 0.748264 0.809751
vt 0.748264 0.747493
vt 0.810523 0.747493
vt 0.436198 0.062645
vt 0.498457 0.062645
vt 0.685234 0.623746
vt 0.622975 0.623746
vt 0.560716 0.623746
vt 0.999614 0.188705
vt 0.937355 0.188705
vt 0.937355 0.126446
vt 0.810523 0.685234
vt 0.436198 0.623746
vt 0.436198 0.686005
vt 0.373939 0.686005
vt 0.187162 0.875096
vt 0.187162 0.937355
vt 0.124903 0.937355
vt 0.498457 0.124903
vt 0.999614 0.503085
vt 0.999614 0.565343
vt 0.937355 0.565344
vt 0.373939 0.623746
vt 0.498457 0.623746
vt 0.748264 0.934269
vt 0.748264 0.872010
vt 0.810523 0.872010
vt 0.062645 0.937355
vt 0.062645 0.875096
vt 0.000386 0.937355
vt 0.000386 0.875096
vt 0.810523 0.809751
vt 0.373939 0.062645
vt 0.498457 0.686005
vt 0.622975 0.686005
vt 0.560716 0.686005
vt 0.499999 0.937355
vt 0.499999 0.875096
vt 0.562258 0.875096
vt 0.560716 0.062644
vt 0.622975 0.062644
vt 0.685233 0.874324
vt 0.747492 0.874324
vt 0.747492 0.936583
vt 0.498457 0.000386
vt 0.560716 0.000386
vt 0.810523 0.996528
vt 0.748264 0.996528
vt 0.560716 0.748264
vt 0.498457 0.748264
vt 0.374710 0.874324
vt 0.936584 0.438512
vt 0.874325 0.438512
vt 0.249421 0.937355
vt 0.937355 0.313994
vt 0.999614 0.313994
vt 0.999614 0.376253
vt 0.747492 0.873553
vt 0.685233 0.873553
vt 0.685233 0.811294
vt 0.624517 0.875096
vt 0.624517 0.937355
vt 0.562258 0.937355
vt 0.999614 0.063416
vt 0.999614 0.125675
vt 0.937355 0.125675
vt 0.747492 0.811294
vt 0.685233 0.749035
vt 0.748264 0.062645
vt 0.748264 0.000386
vt 0.000386 0.374711
vt 0.062644 0.374711
vt 0.062645 0.499228
vt 0.873554 0.622975
vt 0.811295 0.622975
vt 0.811295 0.560716
vt 0.936584 0.564572
vt 0.936584 0.626831
vt 0.874325 0.626831
vt 0.873554 0.685234
vt 0.936584 0.689090
vt 0.874325 0.689090
vt 0.000386 0.561487
vt 0.000386 0.499228
vt 0.249421 0.812066
vt 0.249421 0.874324
vt 0.187162 0.874324
vt 0.062645 0.874325
vt 0.062645 0.812066
vt 0.124903 0.812066
vt 0.623746 0.811294
vt 0.561487 0.811294
vt 0.561487 0.749035
vt 0.000386 0.249421
vt 0.000386 0.187162
vt 0.062645 0.187162
vt 0.499228 0.811294
vt 0.499228 0.749035
vt 0.936584 0.062645
vt 0.874325 0.062645
vt 0.874325 0.000386
vt 0.000386 0.874325
vt 0.000386 0.812066
vt 0.873554 0.187162
vt 0.873554 0.249421
vt 0.811295 0.249421
vt 0.062645 0.249421
vt 0.124903 0.187162
vt 0.124903 0.311680
vt 0.187162 0.311680
vt 0.187162 0.373939
vt 0.062644 0.124903
vt 0.124903 0.124903
vt 0.187162 0.499228
vt 0.124903 0.499228
vt 0.124903 0.436969
vt 0.187162 0.436969
vt 0.124903 0.374710
vt 0.873554 0.124903
vt 0.811295 0.124904
vt 0.811295 0.062645
vt 0.062644 0.749035
vt 0.062645 0.811294
vt 0.000386 0.811294
vt 0.249421 0.561487
vt 0.187162 0.561487
vt 0.124903 0.561487
vt 0.124903 0.249421
vt 0.187162 0.249421
vt 0.811295 0.187162
vt 0.311680 0.249421
vt 0.311680 0.311680
vt 0.249421 0.311680
vt 0.249421 0.436969
vt 0.249421 0.499228
vt 0.124903 0.749035
vt 0.124903 0.811294
vt 0.249421 0.249421
vt 0.311680 0.499228
vt 0.187162 0.187162
vt 0.249421 0.187162
vt 0.311680 0.436969
vt 0.187162 0.749035
vt 0.187162 0.811294
vt 0.249421 0.749035
vt 0.311680 0.561487
vt 0.187162 0.124903
vt 0.999614 0.000386
vt 0.999614 0.062645
vt 0.937355 0.062645
vt 0.311680 0.124903
vt 0.311680 0.187162
vt 0.062645 0.561487
vt 0.873554 0.373939
vt 0.873554 0.436198
vt 0.811295 0.436198
vt 0.811295 0.373939
vt 0.062645 0.373939
vt 0.000386 0.373939
vt 0.873554 0.560716
vt 0.811295 0.747492
vt 0.873554 0.747493
vt 0.873554 0.809751
vt 0.249421 0.062645
vt 0.311680 0.062645
vt 0.124903 0.623746
vt 0.062644 0.623746
vt 0.187162 0.623746
vt 0.936584 0.752120
vt 0.874325 0.752120
vt 0.874325 0.689861
vt 0.811295 0.685233
vt 0.311680 0.686005
vt 0.311680 0.623746
vt 0.374710 0.937355
vt 0.312451 0.937355
vt 0.312451 0.875096
vt 0.249421 0.124903
vt 0.874325 0.752892
vt 0.936584 0.752892
vt 0.936584 0.815150
vt 0.249421 0.623746
vt 0.811295 0.872010
vt 0.873554 0.872010
vt 0.873554 0.934269
vt 0.436969 0.875096
vt 0.436969 0.937355
vt 0.499228 0.875096
vt 0.499228 0.937355
vt 0.811295 0.809751
vt 0.249421 0.686005
vt 0.187162 0.686005
vt 0.124903 0.686005
vt 0.562258 0.812066
vt 0.624517 0.812066
vt 0.624517 0.874325
vt 0.124903 0.062645
vt 0.187162 0.062645
vt 0.936584 0.878952
vt 0.936584 0.941211
vt 0.874325 0.941211
vt 0.187162 0.000386
vt 0.249421 0.000386
vt 0.873553 0.996528
vt 0.811295 0.996528
vt 0.249421 0.748264
vt 0.187162 0.748264
vt 0.124903 0.874324
vt 0.936584 0.124903
vt 0.874325 0.124903
vt 0.250193 0.937355
vt 0.250193 0.875096
vt 0.999614 0.502313
vt 0.937355 0.502313
vt 0.937355 0.440054
vt 0.936584 0.501542
vt 0.936584 0.563801
vt 0.874325 0.563801
vt 0.562258 0.874325
vt 0.500000 0.874325
vt 0.499999 0.812066
vt 0.999614 0.439283
vt 0.937355 0.439283
vt 0.937355 0.377024
vt 0.936584 0.439283
vt 0.874325 0.501542
vt 0.873553 0.000386
vt 0.873554 0.062645
vt 0.874325 0.250193
vt 0.312451 0.812066
vt 0.936584 0.313223
vt 0.874325 0.313994
vt 0.748264 0.249421
vt 0.622975 0.373939
vt 0.560716 0.374710
vt 0.498457 0.749035
vt 0.936584 0.815922
vt 0.999614 0.126446
vt 0.124903 0.875096
vt 0.937355 0.503085
vt 0.810523 0.934269
vt 0.685233 0.936583
vt 0.249421 0.875096
vt 0.937355 0.376253
vt 0.937355 0.063416
vt 0.747492 0.749035
vt 0.810523 0.000386
vt 0.874325 0.564572
vt 0.187162 0.812066
vt 0.623746 0.749035
vt 0.936584 0.000386
vt 0.124903 0.373939
vt 0.187162 0.374710
vt 0.000386 0.749035
vt 0.937355 0.000386
vt 0.936584 0.689861
vt 0.374710 0.875096
vt 0.874325 0.815150
vt 0.811295 0.934269
vt 0.874325 0.878952
vt 0.999614 0.440054
vt 0.999614 0.377024
vt 0.874325 0.439283
vt 0.811295 0.000386
vn 0.000000 0.000000 1.000000
vn 1.000000 0.000000 0.000000
vn 0.000000 0.000000 -1.000000
vn 0.000000 1.000000 -0.000000
vn 0.000000 -1.000000 0.000000
vn -1.000000 0.000000 -0.000000
usemtl Material
s off
f 17/1/1 47/2/1 49/3/1
f 46/4/2 3/5/2 4/6/2
f 1/7/3 5/8/3 11/9/3
f 7/10/4 4/6/4 3/5/4
f 9/11/3 11/9/3 15/12/3
f 17/1/1 45/13/1 4/14/1
f 1/15/5 9/16/5 10/17/5
f 6/18/4 12/19/4 11/20/4
f 6/21/1 2/22/1 10/23/1
f 8/24/3 3/25/3 46/26/3
f 10/23/1 14/27/1 16/28/1
f 9/29/5 13/30/5 14/31/5
f 12/19/4 16/32/4 15/33/4
f 28/34/5 27/35/5 18/36/5
f 39/37/3 8/24/3 18/38/3
f 15/39/3 21/40/3 23/41/3
f 39/37/3 55/42/3 52/43/3
f 24/44/1 28/45/1 26/46/1
f 20/47/1 24/44/1 22/48/1
f 19/49/2 23/50/2 24/51/2
f 16/52/6 22/53/6 21/54/6
f 26/46/1 38/55/1 42/56/1
f 28/45/1 40/57/1 38/55/1
f 21/40/3 25/58/3 27/59/3
f 23/50/2 27/35/2 28/34/2
f 29/60/3 33/61/3 35/62/3
f 26/46/1 32/63/1 30/64/1
f 21/54/5 22/53/5 30/65/5
f 21/40/3 29/60/3 31/66/3
f 36/67/1 118/68/1 116/69/1
f 31/66/3 41/70/3 37/71/3
f 32/63/1 36/67/1 34/72/1
f 29/73/5 30/65/5 34/74/5
f 33/75/5 34/74/5 116/76/5
f 33/61/3 115/77/3 117/78/3
f 32/63/1 42/56/1 44/79/1
f 37/71/3 53/80/3 55/42/3
f 37/81/4 41/82/4 42/83/4
f 127/84/3 145/85/3 59/86/3
f 25/58/3 37/71/3 39/37/3
f 117/78/3 127/84/3 43/87/3
f 35/62/3 43/87/3 41/70/3
f 36/67/1 44/79/1 128/88/1
f 28/45/1 17/1/1 7/89/1
f 47/90/5 48/91/5 50/92/5
f 18/36/6 48/91/6 47/90/6
f 46/26/3 50/93/3 48/94/3
f 45/95/2 49/96/2 50/92/2
f 56/97/4 51/98/4 52/99/4
f 59/86/3 67/100/3 65/101/3
f 7/89/1 51/102/1 56/103/1
f 40/57/1 56/103/1 54/104/1
f 38/105/6 54/106/6 53/107/6
f 8/108/2 52/99/2 51/98/2
f 60/109/1 68/110/1 156/111/1
f 72/112/6 71/113/6 65/114/6
f 43/87/3 59/86/3 57/115/3
f 41/116/2 57/117/2 58/118/2
f 44/79/1 60/109/1 146/119/1
f 42/56/1 58/120/1 60/109/1
f 62/121/4 64/122/4 63/123/4
f 65/114/4 67/124/4 68/125/4
f 67/124/4 155/126/4 156/127/4
f 55/128/2 63/123/2 64/122/2
f 145/85/3 155/129/3 67/100/3
f 58/120/1 66/130/1 68/110/1
f 56/103/1 64/131/1 62/132/1
f 69/133/6 70/134/6 74/135/6
f 53/80/3 61/136/3 63/137/3
f 58/138/5 57/139/5 53/140/5
f 62/132/1 66/130/1 58/120/1
f 53/80/3 57/115/3 65/101/3
f 71/141/3 69/142/3 61/136/3
f 69/143/2 70/144/2 62/121/2
f 70/145/1 72/146/1 66/130/1
f 6/18/6 5/147/6 1/15/6
f 15/148/2 16/149/2 14/31/2
f 69/150/4 71/113/4 72/112/4
f 77/151/3 75/152/3 69/153/3
f 77/154/2 78/155/2 76/156/2
f 78/157/4 77/158/4 73/159/4
f 76/160/1 78/161/1 74/162/1
f 75/163/5 76/156/5 70/164/5
f 19/49/5 20/165/5 16/166/5
f 133/167/1 131/168/1 95/169/1
f 82/170/6 81/171/6 130/172/6
f 79/173/3 87/174/3 89/175/3
f 81/171/4 82/170/4 85/176/4
f 87/174/3 91/177/3 93/178/3
f 82/179/1 129/180/1 95/169/1
f 88/181/5 87/182/5 79/183/5
f 89/184/4 90/185/4 84/186/4
f 84/187/1 90/188/1 88/189/1
f 130/190/3 81/191/3 86/192/3
f 94/193/1 92/194/1 88/189/1
f 92/195/5 91/196/5 87/197/5
f 93/198/4 94/199/4 90/185/4
f 106/200/5 95/201/5 96/202/5
f 96/203/3 86/192/3 121/204/3
f 101/205/3 99/206/3 93/207/3
f 136/208/3 139/209/3 121/204/3
f 104/210/1 106/211/1 102/212/1
f 100/213/1 102/212/1 98/214/1
f 102/215/6 101/216/6 97/217/6
f 99/218/2 100/219/2 94/220/2
f 124/221/1 120/222/1 104/210/1
f 120/222/1 122/223/1 106/211/1
f 105/224/3 103/225/3 99/206/3
f 106/200/6 105/226/6 101/216/6
f 113/227/3 111/228/3 107/229/3
f 108/230/1 110/231/1 104/210/1
f 99/218/5 107/232/5 108/233/5
f 109/234/3 107/229/3 99/206/3
f 116/69/1 118/68/1 114/235/1
f 119/236/3 123/237/3 109/234/3
f 112/238/1 114/235/1 110/231/1
f 107/232/5 111/239/5 112/240/5
f 111/239/5 115/241/5 116/76/5
f 117/78/3 115/77/3 111/228/3
f 126/242/1 124/221/1 110/231/1
f 139/209/3 137/243/3 119/236/3
f 124/244/4 123/245/4 119/246/4
f 143/247/3 145/85/3 127/84/3
f 121/204/3 119/236/3 103/225/3
f 125/248/3 127/84/3 117/78/3
f 123/237/3 125/248/3 113/227/3
f 128/88/1 126/242/1 114/235/1
f 85/249/1 95/169/1 106/211/1
f 131/250/5 133/251/5 134/252/5
f 131/250/2 132/253/2 96/202/2
f 132/254/3 134/255/3 130/190/3
f 134/252/6 133/251/6 129/256/6
f 136/257/4 135/258/4 140/259/4
f 151/260/3 153/261/3 143/247/3
f 140/262/1 135/263/1 85/249/1
f 138/264/1 140/262/1 122/223/1
f 137/265/2 138/266/2 120/267/2
f 135/258/6 136/257/6 86/268/6
f 156/111/1 154/269/1 144/270/1
f 151/271/2 159/272/2 160/273/2
f 141/274/3 143/247/3 125/248/3
f 142/275/6 141/276/6 123/277/6
f 146/119/1 144/270/1 126/242/1
f 144/270/1 142/278/1 124/221/1
f 149/279/4 150/280/4 148/281/4
f 154/282/4 153/283/4 151/271/4
f 156/284/4 155/285/4 153/283/4
f 150/280/6 149/279/6 139/286/6
f 153/261/3 155/129/3 145/85/3
f 154/269/1 152/287/1 142/278/1
f 148/288/1 150/289/1 140/262/1
f 162/290/2 158/291/2 157/292/2
f 149/293/3 147/294/3 137/243/3
f 142/295/5 138/296/5 137/297/5
f 142/278/1 152/287/1 148/288/1
f 151/260/3 141/274/3 137/243/3
f 147/294/3 157/298/3 159/299/3
f 148/281/6 158/300/6 157/301/6
f 152/287/1 160/302/1 158/303/1
f 79/183/2 83/304/2 84/186/2
f 92/195/6 94/305/6 93/306/6
f 157/307/4 158/308/4 160/273/4
f 157/309/3 163/310/3 165/311/3
f 164/312/6 166/313/6 165/314/6
f 161/315/4 165/316/4 166/317/4
f 162/318/1 166/319/1 164/320/1
f 158/321/5 164/312/5 163/322/5
f 94/323/5 98/324/5 97/217/5
f 45/13/1 17/1/1 49/3/1
f 45/95/2 46/4/2 4/6/2
f 9/11/3 1/7/3 11/9/3
f 8/108/4 7/10/4 3/5/4
f 13/325/3 9/11/3 15/12/3
f 7/89/1 17/1/1 4/14/1
f 2/326/5 1/15/5 10/17/5
f 5/147/4 6/18/4 11/20/4
f 12/327/1 6/21/1 10/23/1
f 18/38/3 8/24/3 46/26/3
f 12/327/1 10/23/1 16/28/1
f 10/328/5 9/29/5 14/31/5
f 11/20/4 12/19/4 15/33/4
f 17/329/5 28/34/5 18/36/5
f 27/59/3 39/37/3 18/38/3
f 19/330/3 15/39/3 23/41/3
f 8/24/3 39/37/3 52/43/3
f 22/48/1 24/44/1 26/46/1
f 16/331/1 20/47/1 22/48/1
f 20/165/2 19/49/2 24/51/2
f 15/332/6 16/52/6 21/54/6
f 32/63/1 26/46/1 42/56/1
f 26/46/1 28/45/1 38/55/1
f 23/41/3 21/40/3 27/59/3
f 24/51/2 23/50/2 28/34/2
f 31/66/3 29/60/3 35/62/3
f 22/48/1 26/46/1 30/64/1
f 29/73/5 21/54/5 30/65/5
f 25/58/3 21/40/3 31/66/3
f 34/72/1 36/67/1 116/69/1
f 25/58/3 31/66/3 37/71/3
f 30/64/1 32/63/1 34/72/1
f 33/75/5 29/73/5 34/74/5
f 115/241/5 33/75/5 116/76/5
f 35/62/3 33/61/3 117/78/3
f 36/67/1 32/63/1 44/79/1
f 39/37/3 37/71/3 55/42/3
f 38/333/4 37/81/4 42/83/4
f 43/87/3 127/84/3 59/86/3
f 27/59/3 25/58/3 39/37/3
f 35/62/3 117/78/3 43/87/3
f 31/66/3 35/62/3 41/70/3
f 118/68/1 36/67/1 128/88/1
f 40/57/1 28/45/1 7/89/1
f 49/96/5 47/90/5 50/92/5
f 17/329/6 18/36/6 47/90/6
f 18/38/3 46/26/3 48/94/3
f 46/4/2 45/95/2 50/92/2
f 55/128/4 56/97/4 52/99/4
f 57/115/3 59/86/3 65/101/3
f 40/57/1 7/89/1 56/103/1
f 38/55/1 40/57/1 54/104/1
f 37/334/6 38/105/6 53/107/6
f 7/10/2 8/108/2 51/98/2
f 146/119/1 60/109/1 156/111/1
f 66/335/6 72/112/6 65/114/6
f 41/70/3 43/87/3 57/115/3
f 42/336/2 41/116/2 58/118/2
f 128/88/1 44/79/1 146/119/1
f 44/79/1 42/56/1 60/109/1
f 61/337/4 62/121/4 63/123/4
f 66/335/4 65/114/4 68/125/4
f 68/125/4 67/124/4 156/127/4
f 56/97/2 55/128/2 64/122/2
f 59/86/3 145/85/3 67/100/3
f 60/109/1 58/120/1 68/110/1
f 54/104/1 56/103/1 62/132/1
f 73/159/6 69/133/6 74/135/6
f 55/42/3 53/80/3 63/137/3
f 54/338/5 58/138/5 53/140/5
f 54/104/1 62/132/1 58/120/1
f 61/136/3 53/80/3 65/101/3
f 65/101/3 71/141/3 61/136/3
f 61/337/2 69/143/2 62/121/2
f 62/132/1 70/145/1 66/130/1
f 2/326/6 6/18/6 1/15/6
f 13/30/2 15/148/2 14/31/2
f 70/339/4 69/150/4 72/112/4
f 73/340/3 77/151/3 69/153/3
f 75/163/2 77/154/2 76/156/2
f 74/135/4 78/157/4 73/159/4
f 70/341/1 76/160/1 74/162/1
f 69/342/5 75/163/5 70/164/5
f 15/343/5 19/49/5 16/166/5
f 129/180/1 133/167/1 95/169/1
f 129/256/6 82/170/6 130/172/6
f 83/344/3 79/173/3 89/175/3
f 86/268/4 81/171/4 85/176/4
f 89/175/3 87/174/3 93/178/3
f 85/249/1 82/179/1 95/169/1
f 80/345/5 88/181/5 79/183/5
f 83/304/4 89/184/4 84/186/4
f 80/346/1 84/187/1 88/189/1
f 96/203/3 130/190/3 86/192/3
f 90/188/1 94/193/1 88/189/1
f 88/347/5 92/195/5 87/197/5
f 89/184/4 93/198/4 90/185/4
f 105/226/5 106/200/5 96/202/5
f 105/224/3 96/203/3 121/204/3
f 97/348/3 101/205/3 93/207/3
f 86/192/3 136/208/3 121/204/3
f 100/213/1 104/210/1 102/212/1
f 94/349/1 100/213/1 98/214/1
f 98/324/6 102/215/6 97/217/6
f 93/350/2 99/218/2 94/220/2
f 110/231/1 124/221/1 104/210/1
f 104/210/1 120/222/1 106/211/1
f 101/205/3 105/224/3 99/206/3
f 102/215/6 106/200/6 101/216/6
f 109/234/3 113/227/3 107/229/3
f 100/213/1 108/230/1 104/210/1
f 100/219/5 99/218/5 108/233/5
f 103/225/3 109/234/3 99/206/3
f 112/238/1 116/69/1 114/235/1
f 103/225/3 119/236/3 109/234/3
f 108/230/1 112/238/1 110/231/1
f 108/233/5 107/232/5 112/240/5
f 112/240/5 111/239/5 116/76/5
f 113/227/3 117/78/3 111/228/3
f 114/235/1 126/242/1 110/231/1
f 121/204/3 139/209/3 119/236/3
f 120/351/4 124/244/4 119/246/4
f 125/248/3 143/247/3 127/84/3
f 105/224/3 121/204/3 103/225/3
f 113/227/3 125/248/3 117/78/3
f 109/234/3 123/237/3 113/227/3
f 118/68/1 128/88/1 114/235/1
f 122/223/1 85/249/1 106/211/1
f 132/253/5 131/250/5 134/252/5
f 95/201/2 131/250/2 96/202/2
f 96/203/3 132/254/3 130/190/3
f 130/172/6 134/252/6 129/256/6
f 139/286/4 136/257/4 140/259/4
f 141/274/3 151/260/3 143/247/3
f 122/223/1 140/262/1 85/249/1
f 120/222/1 138/264/1 122/223/1
f 119/352/2 137/265/2 120/267/2
f 85/176/6 135/258/6 86/268/6
f 146/119/1 156/111/1 144/270/1
f 152/353/2 151/271/2 160/273/2
f 123/237/3 141/274/3 125/248/3
f 124/354/6 142/275/6 123/277/6
f 128/88/1 146/119/1 126/242/1
f 126/242/1 144/270/1 124/221/1
f 147/355/4 149/279/4 148/281/4
f 152/353/4 154/282/4 151/271/4
f 154/282/4 156/284/4 153/283/4
f 140/259/6 150/280/6 139/286/6
f 143/247/3 153/261/3 145/85/3
f 144/270/1 154/269/1 142/278/1
f 138/264/1 148/288/1 140/262/1
f 161/315/2 162/290/2 157/292/2
f 139/209/3 149/293/3 137/243/3
f 141/356/5 142/295/5 137/297/5
f 138/264/1 142/278/1 148/288/1
f 147/294/3 151/260/3 137/243/3
f 151/260/3 147/294/3 159/299/3
f 147/355/6 148/281/6 157/301/6
f 148/288/1 152/287/1 158/303/1
f 80/345/2 79/183/2 84/186/2
f 91/196/6 92/195/6 93/306/6
f 159/272/4 157/307/4 160/273/4
f 161/357/3 157/309/3 165/311/3
f 163/322/6 164/312/6 165/314/6
f 162/290/4 161/315/4 166/317/4
f 158/358/1 162/318/1 164/320/1
f 157/359/5 158/321/5 163/322/5
f 93/360/5 94/323/5 97/217/5
